<svg width="32" height="31" viewBox="0 0 32 31" fill="none" xmlns="http://www.w3.org/2000/svg">
<path d="M15.0748 1.25583C15.4141 0.42845 16.5859 0.428452 16.9252 1.25583L20.4844 9.9338C20.628 10.284 20.9571 10.5231 21.3346 10.5515L30.6877 11.2549C31.5794 11.3219 31.9415 12.4363 31.2595 13.0147L24.1061 19.0813C23.8174 19.3262 23.6917 19.713 23.7813 20.0808L26.0027 29.1935C26.2145 30.0623 25.2665 30.751 24.5057 30.2811L16.5255 25.3525C16.2034 25.1536 15.7966 25.1536 15.4745 25.3525L7.49432 30.2811C6.73346 30.751 5.78551 30.0623 5.9973 29.1935L8.21865 20.0808C8.3083 19.713 8.1826 19.3262 7.8939 19.0813L0.740502 13.0147C0.0584781 12.4363 0.420564 11.3219 1.31231 11.2549L10.6654 10.5515C11.0429 10.5231 11.372 10.284 11.5156 9.9338L15.0748 1.25583Z" fill="#EEEEEE"/>
</svg>
