<svg width="14" height="13" viewBox="0 0 14 13" fill="none" xmlns="http://www.w3.org/2000/svg">
<path d="M6.07479 1.25584C6.41414 0.428453 7.58586 0.428453 7.92521 1.25584L8.86286 3.54202C9.0065 3.89225 9.3356 4.13135 9.71308 4.15974L12.1771 4.34503C13.0689 4.41209 13.431 5.52647 12.7489 6.10488L10.8644 7.70311C10.5757 7.94795 10.45 8.33483 10.5396 8.7026L11.1248 11.1033C11.3366 11.9721 10.3887 12.6609 9.62783 12.1909L7.52546 10.8925C7.20339 10.6936 6.79661 10.6936 6.47454 10.8925L4.37217 12.1909C3.61132 12.6609 2.66337 11.9721 2.87516 11.1033L3.46036 8.7026C3.55001 8.33483 3.42431 7.94795 3.13561 7.70311L1.25107 6.10488C0.569045 5.52647 0.93113 4.41209 1.82288 4.34503L4.28692 4.15974C4.6644 4.13135 4.9935 3.89225 5.13714 3.54202L6.07479 1.25584Z" fill="#DCDCDC"/>
</svg>
