<svg width="24" height="24" viewBox="0 0 24 24" fill="none" xmlns="http://www.w3.org/2000/svg">
<path d="M12 11C14.2091 11 16 9.20914 16 7C16 4.79086 14.2091 3 12 3C9.79086 3 8 4.79086 8 7C8 9.20914 9.79086 11 12 11Z" stroke="#DCDCDC" stroke-width="2" stroke-linecap="round" stroke-linejoin="round"/>
<mask id="path-2-inside-1_2966_650" fill="white">
<path d="M3 19C3 16.2386 5.23858 14 8 14H16C18.7614 14 21 16.2386 21 19V21C21 21.5523 20.5523 22 20 22H4C3.44772 22 3 21.5523 3 21V19Z"/>
</mask>
<path d="M3 19C3 16.2386 5.23858 14 8 14H16C18.7614 14 21 16.2386 21 19V21C21 21.5523 20.5523 22 20 22H4C3.44772 22 3 21.5523 3 21V19Z" stroke="#DCDCDC" stroke-width="4" mask="url(#path-2-inside-1_2966_650)"/>
</svg>
