<svg width="132" height="132" viewBox="0 0 132 132" fill="none" xmlns="http://www.w3.org/2000/svg">
<rect x="1.5" y="1.5" width="129" height="129" fill="#F4F4F4" stroke="#DCDCDC"/>
<path d="M131 1L1 131" stroke="#DCDCDC"/>
<path d="M131 131L1 1" stroke="#DCDCDC"/>
<path fill-rule="evenodd" clip-rule="evenodd" d="M89.4672 55.9425V76.5204C89.4672 84.1447 84.7028 89.522 77.0899 89.522H55.2847C47.6718 89.522 42.9326 84.1447 42.9326 76.5204V55.9425C42.9326 48.3182 47.697 42.9434 55.2847 42.9434H77.0899C84.7028 42.9434 89.4672 48.3182 89.4672 55.9425Z" stroke="#737373" stroke-width="2" stroke-linecap="round" stroke-linejoin="round"/>
<path d="M49.3135 77.4813L53.1653 73.4091C54.5039 71.9878 56.7348 71.9196 58.1566 73.2576C58.1994 73.3005 60.5186 75.661 60.5186 75.661C61.9176 77.0874 64.204 77.1101 65.6283 75.7115C65.7216 75.6206 71.5119 68.5871 71.5119 68.5871C73.0043 66.7719 75.6839 66.5119 77.4989 68.009C77.6199 68.11 83.0901 73.7322 83.0901 73.7322" stroke="#737373" stroke-width="2" stroke-linecap="round" stroke-linejoin="round"/>
<path fill-rule="evenodd" clip-rule="evenodd" d="M61.9964 59.0575C61.9964 61.5039 60.0176 63.4857 57.5749 63.4857C55.1322 63.4857 53.1533 61.5039 53.1533 59.0575C53.1533 56.6112 55.1322 54.6294 57.5749 54.6294C60.0176 54.6319 61.9964 56.6112 61.9964 59.0575Z" stroke="#737373" stroke-width="2" stroke-linecap="round" stroke-linejoin="round"/>
</svg>
