<svg width="24" height="24" viewBox="0 0 24 24" fill="none" xmlns="http://www.w3.org/2000/svg">
<path d="M11 19C15.4183 19 19 15.4183 19 11C19 6.58172 15.4183 3 11 3C6.58172 3 3 6.58172 3 11C3 15.4183 6.58172 19 11 19Z" fill="#FF5555"/>
<path d="M21 21L16.65 16.65M19 11C19 15.4183 15.4183 19 11 19C6.58172 19 3 15.4183 3 11C3 6.58172 6.58172 3 11 3C15.4183 3 19 6.58172 19 11Z" stroke="#FF5555" stroke-width="2" stroke-linecap="round" stroke-linejoin="round"/>
<path d="M16 11C16 8.23858 13.7614 6 11 6" stroke="white" stroke-width="2" stroke-linecap="round"/>
</svg>
